<?xml version="1.0" encoding="utf-8"?>
<!-- Generator: Adobe Illustrator 15.0.0, SVG Export Plug-In . SVG Version: 6.00 Build 0)  -->
<!DOCTYPE svg PUBLIC "-//W3C//DTD SVG 1.1//EN" "http://www.w3.org/Graphics/SVG/1.1/DTD/svg11.dtd">
<svg version="1.1" id="Layer_1" xmlns="http://www.w3.org/2000/svg" xmlns:xlink="http://www.w3.org/1999/xlink" x="0px" y="0px"
	 width="612px" height="792px" viewBox="0 0 612 792" enable-background="new 0 0 612 792" xml:space="preserve">
<g>
	<g>
		<circle fill="none" stroke="#000000" stroke-miterlimit="10" cx="90.048" cy="97.971" r="4.252"/>
		<circle fill="none" stroke="#000000" stroke-miterlimit="10" cx="90.048" cy="236.87" r="4.252"/>
		<circle fill="none" stroke="#000000" stroke-miterlimit="10" cx="254.457" cy="97.971" r="4.253"/>
		<circle fill="none" stroke="#000000" stroke-miterlimit="10" cx="254.457" cy="236.87" r="4.253"/>
	</g>
	<g>
		<circle fill="none" stroke="#000000" stroke-miterlimit="10" cx="81.969" cy="79.942" r="4.252"/>
		<circle fill="none" stroke="#000000" stroke-miterlimit="10" cx="299.104" cy="254.897" r="4.252"/>
		<g>
			<circle fill="none" stroke="#000000" stroke-miterlimit="10" cx="81.969" cy="254.899" r="4.252"/>
		</g>
		<circle fill="none" stroke="#000000" stroke-miterlimit="10" cx="299.104" cy="80.792" r="4.252"/>
	</g>
	<path fill="none" stroke="#000000" stroke-miterlimit="10" d="M345.166,277.013c0,4.442-3.597,8.044-8.032,8.044H64.063
		c-4.436,0-8.031-3.602-8.031-8.044V57.825c0-4.441,3.596-8.043,8.031-8.043h273.071c4.436,0,8.032,3.602,8.032,8.043V277.013z"/>
	<g>
		<circle fill="none" stroke="#000000" stroke-miterlimit="10" cx="67.37" cy="61.121" r="4.96"/>
		<circle fill="none" stroke="#000000" stroke-miterlimit="10" cx="67.37" cy="273.718" r="4.96"/>
		<circle fill="none" stroke="#000000" stroke-miterlimit="10" cx="333.826" cy="61.121" r="4.96"/>
		<circle fill="none" stroke="#000000" stroke-miterlimit="10" cx="333.826" cy="273.718" r="4.96"/>
	</g>
</g>
</svg>
